<svg xmlns="http://www.w3.org/2000/svg" version="1.1" xmlns:xlink="http://www.w3.org/1999/xlink" xmlns:svgjs="http://svgjs.dev/svgjs" width="2000" height="767" viewBox="0 0 2000 767"><g transform="matrix(1,0,0,1,-1.2121212121212466,0.6098238406851806)"><svg viewBox="0 0 396 152" data-background-color="#ffffff" preserveAspectRatio="xMidYMid meet" height="767" width="2000" xmlns="http://www.w3.org/2000/svg" xmlns:xlink="http://www.w3.org/1999/xlink"><g id="tight-bounds" transform="matrix(1,0,0,1,0.2400000000000091,-0.120851660735525)"><svg viewBox="0 0 395.52 152.24170332147105" height="152.24170332147105" width="395.52"><g><svg viewBox="0 0 395.52 152.24170332147105" height="152.24170332147105" width="395.52"><g transform="matrix(1,0,0,1,0,91.76877745419732)"><svg viewBox="0 0 395.52 60.472925867273744" height="60.472925867273744" width="395.52"><g id="textblocktransform"><svg viewBox="0 0 395.52 60.472925867273744" height="60.472925867273744" width="395.52" id="textblock"><g><svg viewBox="0 0 395.52 34.71421875" height="34.71421875" width="395.52"><g transform="matrix(1,0,0,1,0,0)"><svg width="395.52" viewBox="3.1 -35.6 409.57 35.95" height="34.71421875" data-palette-color="#61777f"><path d="M29.85-23.8Q29.85-20.75 28.45-18.23 27.05-15.7 24.15-14.15 21.25-12.6 16.95-12.6L16.95-12.6 11.65-12.6 11.65 0 3.1 0 3.1-35.1 16.95-35.1Q21.15-35.1 24.05-33.65 26.95-32.2 28.4-29.65 29.85-27.1 29.85-23.8L29.85-23.8ZM16.3-19.4Q18.75-19.4 19.95-20.55 21.15-21.7 21.15-23.8L21.15-23.8Q21.15-25.9 19.95-27.05 18.75-28.2 16.3-28.2L16.3-28.2 11.65-28.2 11.65-19.4 16.3-19.4ZM61.85 0L52.2 0 44.9-13.25 42.85-13.25 42.85 0 34.3 0 34.3-35.1 48.65-35.1Q52.8-35.1 55.72-33.65 58.65-32.2 60.1-29.68 61.55-27.15 61.55-24.05L61.55-24.05Q61.55-20.55 59.57-17.8 57.6-15.05 53.75-13.9L53.75-13.9 61.85 0ZM42.85-28L42.85-19.3 48.15-19.3Q50.5-19.3 51.67-20.45 52.85-21.6 52.85-23.7L52.85-23.7Q52.85-25.7 51.67-26.85 50.5-28 48.15-28L48.15-28 42.85-28ZM83.5 0.35Q78.55 0.35 74.42-1.95 70.3-4.25 67.87-8.38 65.45-12.5 65.45-17.65L65.45-17.65Q65.45-22.8 67.87-26.9 70.3-31 74.42-33.3 78.55-35.6 83.5-35.6L83.5-35.6Q88.45-35.6 92.57-33.3 96.69-31 99.07-26.9 101.44-22.8 101.44-17.65L101.44-17.65Q101.44-12.5 99.05-8.38 96.65-4.25 92.55-1.95 88.45 0.35 83.5 0.35L83.5 0.35ZM83.5-7.45Q87.7-7.45 90.22-10.25 92.75-13.05 92.75-17.65L92.75-17.65Q92.75-22.3 90.22-25.08 87.7-27.85 83.5-27.85L83.5-27.85Q79.25-27.85 76.72-25.1 74.2-22.35 74.2-17.65L74.2-17.65Q74.2-13 76.72-10.23 79.25-7.45 83.5-7.45L83.5-7.45ZM135.89-35.1L145.94-35.1 145.94 0 137.39 0 137.39-21.05 129.54 0 122.64 0 114.74-21.1 114.74 0 106.19 0 106.19-35.1 116.29-35.1 126.14-10.8 135.89-35.1ZM178.84-23.8Q178.84-20.75 177.44-18.23 176.04-15.7 173.14-14.15 170.24-12.6 165.94-12.6L165.94-12.6 160.64-12.6 160.64 0 152.09 0 152.09-35.1 165.94-35.1Q170.14-35.1 173.04-33.65 175.94-32.2 177.39-29.65 178.84-27.1 178.84-23.8L178.84-23.8ZM165.29-19.4Q167.74-19.4 168.94-20.55 170.14-21.7 170.14-23.8L170.14-23.8Q170.14-25.9 168.94-27.05 167.74-28.2 165.29-28.2L165.29-28.2 160.64-28.2 160.64-19.4 165.29-19.4ZM181.39-35.1L208.54-35.1 208.54-28.25 199.24-28.25 199.24 0 190.69 0 190.69-28.25 181.39-28.25 181.39-35.1ZM250.18-23.8Q250.18-20.75 248.78-18.23 247.38-15.7 244.48-14.15 241.58-12.6 237.28-12.6L237.28-12.6 231.98-12.6 231.98 0 223.43 0 223.43-35.1 237.28-35.1Q241.48-35.1 244.38-33.65 247.28-32.2 248.73-29.65 250.18-27.1 250.18-23.8L250.18-23.8ZM236.63-19.4Q239.08-19.4 240.28-20.55 241.48-21.7 241.48-23.8L241.48-23.8Q241.48-25.9 240.28-27.05 239.08-28.2 236.63-28.2L236.63-28.2 231.98-28.2 231.98-19.4 236.63-19.4ZM271.23 0.35Q266.28 0.35 262.16-1.95 258.03-4.25 255.61-8.38 253.18-12.5 253.18-17.65L253.18-17.65Q253.18-22.8 255.61-26.9 258.03-31 262.16-33.3 266.28-35.6 271.23-35.6L271.23-35.6Q276.18-35.6 280.31-33.3 284.43-31 286.81-26.9 289.18-22.8 289.18-17.65L289.18-17.65Q289.18-12.5 286.78-8.38 284.38-4.25 280.28-1.95 276.18 0.35 271.23 0.35L271.23 0.35ZM271.23-7.45Q275.43-7.45 277.96-10.25 280.48-13.05 280.48-17.65L280.48-17.65Q280.48-22.3 277.96-25.08 275.43-27.85 271.23-27.85L271.23-27.85Q266.98-27.85 264.46-25.1 261.93-22.35 261.93-17.65L261.93-17.65Q261.93-13 264.46-10.23 266.98-7.45 271.23-7.45L271.23-7.45ZM321.48 0L311.83 0 304.53-13.25 302.48-13.25 302.48 0 293.93 0 293.93-35.1 308.28-35.1Q312.43-35.1 315.35-33.65 318.28-32.2 319.73-29.68 321.18-27.15 321.18-24.05L321.18-24.05Q321.18-20.55 319.2-17.8 317.23-15.05 313.38-13.9L313.38-13.9 321.48 0ZM302.48-28L302.48-19.3 307.78-19.3Q310.13-19.3 311.3-20.45 312.48-21.6 312.48-23.7L312.48-23.7Q312.48-25.7 311.3-26.85 310.13-28 307.78-28L307.78-28 302.48-28ZM324.63-35.1L351.78-35.1 351.78-28.25 342.48-28.25 342.48 0 333.93 0 333.93-28.25 324.63-28.25 324.63-35.1ZM380.02 0L377.92-6.2 364.82-6.2 362.72 0 353.77 0 366.47-35.1 376.37-35.1 389.07 0 380.02 0ZM367.07-12.8L375.72-12.8 371.37-25.65 367.07-12.8ZM401.47-35.1L401.47-6.6 412.67-6.6 412.67 0 392.92 0 392.92-35.1 401.47-35.1Z" opacity="1" transform="matrix(1,0,0,1,0,0)" fill="#61777f" class="undefined-text-0" data-fill-palette-color="primary" id="text-0"></path></svg></g></svg></g><g transform="matrix(1,0,0,1,39.55199999999999,42.909412655625005)"><svg viewBox="0 0 316.416 17.56351321164874" height="17.56351321164874" width="316.416"><g transform="matrix(1,0,0,1,0,0)"><svg width="316.416" viewBox="3 -30.74 651.32 36.16" height="17.56351321164874" data-palette-color="#c8c8c8"><path d="M5.62 0.07Q3 0.07 3-1.29L3-1.29 3-28.66Q3-29.57 3.42-29.97 3.83-30.37 4.74-30.37L4.74-30.37 13.87-30.37Q17.92-30.37 21.04-28.39 24.17-26.42 24.17-20.87L24.17-20.87Q24.17-17.07 22.36-14.95 20.56-12.84 18.3-12.11 16.04-11.38 14.28-11.38L14.28-11.38 9.69-11.38 9.69-1.29Q9.69 0.07 7.08 0.07L7.08 0.07 5.62 0.07ZM9.69-17.11L13.55-17.11Q15.11-17.11 16.22-17.94 17.33-18.77 17.33-20.87L17.33-20.87Q17.33-23 16.21-23.85 15.09-24.71 13.55-24.71L13.55-24.71 9.69-24.71 9.69-17.11ZM40.62 0.37Q36.18 0.37 33.07-1.44 29.95-3.25 28.33-6.73 26.71-10.21 26.71-15.21L26.71-15.21Q26.71-20.19 28.33-23.67 29.95-27.15 33.07-28.94 36.18-30.74 40.62-30.74L40.62-30.74Q45.09-30.74 48.2-28.94 51.32-27.15 52.93-23.67 54.54-20.19 54.54-15.21L54.54-15.21Q54.54-10.21 52.93-6.73 51.32-3.25 48.2-1.44 45.09 0.37 40.62 0.37L40.62 0.37ZM40.62-5.35Q44.11-5.35 45.9-7.87 47.68-10.4 47.68-15.21L47.68-15.21Q47.68-20.02 45.9-22.51 44.11-25 40.62-25L40.62-25Q37.16-25 35.36-22.5 33.57-20 33.57-15.21L33.57-15.21Q33.57-10.4 35.37-7.87 37.18-5.35 40.62-5.35L40.62-5.35ZM65.64 0.07Q64.59 0.07 63.98-0.16 63.37-0.39 63.28-0.83L63.28-0.83 56.42-28.69Q56.32-28.96 56.32-29.35L56.32-29.35Q56.32-29.88 56.99-30.19 57.66-30.49 59.03-30.49L59.03-30.49 60.15-30.49Q62.69-30.49 63.06-29.13L63.06-29.13 66.3-15.16Q66.38-14.79 66.89-12.4L66.89-12.4 67.65-8.91Q67.94-10.69 68.77-13.87L68.77-13.87 69.11-15.16 72.7-29.57Q72.8-30.05 73.4-30.27 73.99-30.49 75.07-30.49L75.07-30.49 76.73-30.49Q77.8-30.49 78.4-30.27 79-30.05 79.1-29.57L79.1-29.57 82.54-15.16Q83.17-12.48 84.03-8.62L84.03-8.62Q84.13-9.06 84.71-11.69L84.71-11.69 85.49-15.16 88.86-29.13Q89.23-30.49 91.77-30.49L91.77-30.49 92.26-30.49Q93.6-30.49 94.27-30.19 94.94-29.88 94.94-29.35L94.94-29.35Q94.94-29.17 94.92-29.02 94.89-28.86 94.87-28.69L94.87-28.69 87.79-0.83Q87.67-0.39 87.01-0.16 86.35 0.07 85.4 0.07L85.4 0.07 82.22 0.07Q81.27 0.07 80.61-0.16 79.95-0.39 79.85-0.83L79.85-0.83 76.29-15.84 75.61-18.8 74.85-15.84 71.16-0.83Q71.04-0.39 70.38-0.16 69.72 0.07 68.77 0.07L68.77 0.07 65.64 0.07ZM99.5 0Q98.6 0 98.19-0.42 97.77-0.83 97.77-1.73L97.77-1.73 97.77-28.66Q97.77-29.57 98.19-29.97 98.6-30.37 99.5-30.37L99.5-30.37 115.4-30.37Q116.08-30.37 116.39-29.86 116.69-29.35 116.69-28.2L116.69-28.2 116.69-26.88Q116.69-25.73 116.39-25.22 116.08-24.71 115.4-24.71L115.4-24.71 104.46-24.71 104.46-18.41 114.23-18.41Q114.91-18.41 115.21-17.9 115.52-17.38 115.52-16.24L115.52-16.24 115.52-14.89Q115.52-13.75 115.21-13.23 114.91-12.72 114.23-12.72L114.23-12.72 104.46-12.72 104.46-5.69 115.42-5.69Q116.11-5.69 116.41-5.18 116.72-4.66 116.72-3.54L116.72-3.54 116.72-2.17Q116.72-1.03 116.41-0.51 116.11 0 115.42 0L115.42 0 99.5 0ZM124.09 0.07Q121.47 0.07 121.47-1.29L121.47-1.29 121.47-28.66Q121.47-29.57 121.89-29.97 122.3-30.37 123.21-30.37L123.21-30.37 131.68-30.37Q142.47-30.37 142.47-22.24L142.47-22.24Q142.47-19.78 141.09-17.99 139.71-16.21 137.39-15.33L137.39-15.33 137.39-15.16Q138.2-14.82 139.09-13.7 139.98-12.57 140.52-11.16L140.52-11.16 144.35-1.61Q144.55-1.03 144.55-0.78L144.55-0.78Q144.55 0.07 141.96 0.07L141.96 0.07 140.18 0.07Q138 0.07 137.66-0.83L137.66-0.83 134.22-9.3Q133.73-10.28 133.28-10.82 132.83-11.35 132.02-11.63 131.22-11.91 129.85-11.91L129.85-11.91 128.16-11.91 128.16-1.29Q128.16 0.07 125.55 0.07L125.55 0.07 124.09 0.07ZM128.16-17.68L132.27-17.68Q133.14-17.68 133.93-18.18 134.71-18.68 135.17-19.53 135.63-20.39 135.63-21.41L135.63-21.41Q135.63-22.92 134.65-23.82 133.66-24.71 131.97-24.71L131.97-24.71 128.16-24.71 128.16-17.68ZM149.69 0Q148.79 0 148.38-0.42 147.96-0.83 147.96-1.73L147.96-1.73 147.96-28.66Q147.96-29.57 148.38-29.97 148.79-30.37 149.69-30.37L149.69-30.37 165.59-30.37Q166.27-30.37 166.58-29.86 166.88-29.35 166.88-28.2L166.88-28.2 166.88-26.88Q166.88-25.73 166.58-25.22 166.27-24.71 165.59-24.71L165.59-24.71 154.65-24.71 154.65-18.41 164.42-18.41Q165.1-18.41 165.4-17.9 165.71-17.38 165.71-16.24L165.71-16.24 165.71-14.89Q165.71-13.75 165.4-13.23 165.1-12.72 164.42-12.72L164.42-12.72 154.65-12.72 154.65-5.69 165.61-5.69Q166.3-5.69 166.6-5.18 166.91-4.66 166.91-3.54L166.91-3.54 166.91-2.17Q166.91-1.03 166.6-0.51 166.3 0 165.61 0L165.61 0 149.69 0ZM173.4 0Q172.49 0 172.08-0.42 171.66-0.83 171.66-1.73L171.66-1.73 171.66-28.66Q171.66-29.57 172.08-29.97 172.49-30.37 173.4-30.37L173.4-30.37 183.11-30.37Q187.58-30.37 190.7-28.63 193.81-26.88 195.41-23.49 197.01-20.09 197.01-15.21L197.01-15.21Q197.01-10.3 195.41-6.91 193.81-3.52 190.7-1.76 187.58 0 183.11 0L183.11 0 173.4 0ZM178.4-5.69L183.11-5.69Q186.58-5.69 188.36-8.12 190.15-10.55 190.15-15.21L190.15-15.21Q190.15-19.85 188.36-22.28 186.58-24.71 183.11-24.71L183.11-24.71 178.4-24.71 178.4-5.69ZM213.99 0Q213.09 0 212.68-0.42 212.26-0.83 212.26-1.73L212.26-1.73 212.26-28.66Q212.26-29.57 212.68-29.97 213.09-30.37 213.99-30.37L213.99-30.37 222.59-30.37Q227.86-30.37 230.35-28.33 232.84-26.29 232.84-22.71L232.84-22.71Q232.84-20.56 231.5-18.75 230.16-16.94 228.13-16.11L228.13-16.11 228.18-15.94Q229.89-15.6 231.22-14.55 232.55-13.5 233.29-11.99 234.04-10.47 234.04-8.81L234.04-8.81Q234.04-4.54 231.33-2.27 228.62 0 223.2 0L223.2 0 213.99 0ZM218.95-18.29L221.93-18.29Q223.83-18.29 224.89-19.2 225.96-20.12 225.96-21.53L225.96-21.53Q225.96-24.76 222-24.76L222-24.76 218.95-24.76 218.95-18.29ZM218.95-5.69L223.2-5.69Q225.08-5.69 226.13-6.6 227.18-7.52 227.18-9.2L227.18-9.2Q227.18-10.86 225.97-11.72 224.76-12.57 222.49-12.57L222.49-12.57 218.95-12.57 218.95-5.69ZM246.41 0.07Q243.8 0.07 243.8-1.29L243.8-1.29 243.8-14.58 235.16-28.54Q234.74-29.25 234.74-29.61L234.74-29.61Q234.74-30.03 235.44-30.26 236.13-30.49 237.53-30.49L237.53-30.49 239.36-30.49Q240.41-30.49 241.05-30.31 241.7-30.13 241.97-29.66L241.97-29.66 247.27-20.36 252.61-29.66Q252.88-30.13 253.54-30.31 254.2-30.49 255.23-30.49L255.23-30.49 256.76-30.49Q258.16-30.49 258.84-30.26 259.52-30.03 259.52-29.61L259.52-29.61Q259.52-29.13 259.11-28.54L259.11-28.54 250.49-14.45 250.49-1.29Q250.49 0.07 247.9 0.07L247.9 0.07 246.41 0.07ZM272.34 0.07Q269.67 0.07 269.67-0.88L269.67-0.88Q269.67-1.15 269.85-1.66L269.85-1.66 279.42-29.57Q279.76-30.49 281.88-30.49L281.88-30.49 284.13-30.49Q286.25-30.49 286.59-29.57L286.59-29.57 296.16-1.66Q296.29-1.17 296.29-0.88L296.29-0.88Q296.29-0.39 295.76-0.16 295.24 0.07 294.11 0.07L294.11 0.07 292.21 0.07Q291.18 0.07 290.56-0.13 289.94-0.34 289.79-0.83L289.79-0.83 288.03-6.13 277.8-6.13 276.05-0.83Q275.78 0.07 274.04 0.07L274.04 0.07 272.34 0.07ZM279.66-11.87L286.18-11.87 283.71-19.58Q283.49-20.17 283.33-20.92 283.18-21.68 283.05-22.36L283.05-22.36 282.88-22.36 282.79-21.83Q282.54-20.39 282.22-19.58L282.22-19.58 279.66-11.87ZM301.63 0.12Q300.31 0.12 299.66-0.24 299.02-0.61 299.02-1.29L299.02-1.29 299.02-29.08Q299.02-30.52 301.63-30.52L301.63-30.52 303.14-30.52Q304.49-30.52 305.11-30.15 305.73-29.79 305.73-29.08L305.73-29.08 305.73-1.29Q305.73 0.12 303.14 0.12L303.14 0.12 301.63 0.12ZM310.1 5.42Q309.39 5.42 308.76 5.19 308.12 4.96 308.12 4.49L308.12 4.49Q308.12 4.22 308.24 3.83 308.37 3.44 308.54 3.05L308.54 3.05Q309.22 1.42 309.65-0.29 310.07-2 310.07-4.79L310.07-4.79Q310.07-6.69 312.66-6.69L312.66-6.69 313.49-6.69Q314.81-6.69 315.45-6.16 316.08-5.64 316.08-4.79L316.08-4.79Q316.08-2.51 315.02-0.13 313.96 2.25 312.52 3.83 311.08 5.42 310.1 5.42L310.1 5.42ZM332.31 0Q331.41 0 330.99-0.42 330.58-0.83 330.58-1.73L330.58-1.73 330.58-28.66Q330.58-29.57 330.99-29.97 331.41-30.37 332.31-30.37L332.31-30.37 348.2-30.37Q348.89-30.37 349.19-29.86 349.5-29.35 349.5-28.2L349.5-28.2 349.5-26.88Q349.5-25.73 349.19-25.22 348.89-24.71 348.2-24.71L348.2-24.71 337.27-24.71 337.27-18.41 347.03-18.41Q347.72-18.41 348.02-17.9 348.33-17.38 348.33-16.24L348.33-16.24 348.33-14.89Q348.33-13.75 348.02-13.23 347.72-12.72 347.03-12.72L347.03-12.72 337.27-12.72 337.27-5.69 348.23-5.69Q348.91-5.69 349.22-5.18 349.52-4.66 349.52-3.54L349.52-3.54 349.52-2.17Q349.52-1.03 349.22-0.51 348.91 0 348.23 0L348.23 0 332.31 0ZM356.89 0.07Q354.28 0.07 354.28-1.29L354.28-1.29 354.28-29.08Q354.28-29.79 354.92-30.14 355.55-30.49 356.89-30.49L356.89-30.49 359.19-30.49Q361.26-30.49 361.9-29.3L361.9-29.3 369.2-16.33 369.56-15.7 369.93-16.46 377.28-29.3Q377.94-30.49 380.01-30.49L380.01-30.49 382.28-30.49Q384.9-30.49 384.9-29.08L384.9-29.08 384.9-1.29Q384.9 0.07 382.28 0.07L382.28 0.07 381.01 0.07Q378.4 0.07 378.4-1.29L378.4-1.29 378.4-19.29 378.23-19.34 371.93-8.08Q371.37-7.25 370.2-7.25L370.2-7.25 368.95-7.25Q368.34-7.25 367.93-7.46 367.51-7.67 367.22-8.08L367.22-8.08 360.9-19.34 360.73-19.29 360.73-1.29Q360.73 0.07 358.14 0.07L358.14 0.07 356.89 0.07ZM392.58 0Q391.68 0 391.27-0.42 390.85-0.83 390.85-1.73L390.85-1.73 390.85-28.66Q390.85-29.57 391.27-29.97 391.68-30.37 392.58-30.37L392.58-30.37 401.18-30.37Q406.45-30.37 408.94-28.33 411.43-26.29 411.43-22.71L411.43-22.71Q411.43-20.56 410.09-18.75 408.75-16.94 406.72-16.11L406.72-16.11 406.77-15.94Q408.48-15.6 409.81-14.55 411.14-13.5 411.88-11.99 412.63-10.47 412.63-8.81L412.63-8.81Q412.63-4.54 409.92-2.27 407.21 0 401.79 0L401.79 0 392.58 0ZM397.54-18.29L400.52-18.29Q402.42-18.29 403.49-19.2 404.55-20.12 404.55-21.53L404.55-21.53Q404.55-24.76 400.59-24.76L400.59-24.76 397.54-24.76 397.54-18.29ZM397.54-5.69L401.79-5.69Q403.67-5.69 404.72-6.6 405.77-7.52 405.77-9.2L405.77-9.2Q405.77-10.86 404.56-11.72 403.35-12.57 401.08-12.57L401.08-12.57 397.54-12.57 397.54-5.69ZM419.19 0.07Q416.58 0.07 416.58-1.29L416.58-1.29 416.58-28.66Q416.58-29.57 417-29.97 417.41-30.37 418.31-30.37L418.31-30.37 426.79-30.37Q437.58-30.37 437.58-22.24L437.58-22.24Q437.58-19.78 436.2-17.99 434.82-16.21 432.5-15.33L432.5-15.33 432.5-15.16Q433.3-14.82 434.2-13.7 435.09-12.57 435.62-11.16L435.62-11.16 439.46-1.61Q439.65-1.03 439.65-0.78L439.65-0.78Q439.65 0.07 437.06 0.07L437.06 0.07 435.28 0.07Q433.11 0.07 432.77-0.83L432.77-0.83 429.33-9.3Q428.84-10.28 428.39-10.82 427.93-11.35 427.13-11.63 426.32-11.91 424.96-11.91L424.96-11.91 423.27-11.91 423.27-1.29Q423.27 0.07 420.66 0.07L420.66 0.07 419.19 0.07ZM423.27-17.68L427.37-17.68Q428.25-17.68 429.03-18.18 429.81-18.68 430.28-19.53 430.74-20.39 430.74-21.41L430.74-21.41Q430.74-22.92 429.75-23.82 428.76-24.71 427.08-24.71L427.08-24.71 423.27-24.71 423.27-17.68ZM442.73 0.07Q440.06 0.07 440.06-0.88L440.06-0.88Q440.06-1.15 440.24-1.66L440.24-1.66 449.81-29.57Q450.15-30.49 452.27-30.49L452.27-30.49 454.52-30.49Q456.64-30.49 456.98-29.57L456.98-29.57 466.55-1.66Q466.68-1.17 466.68-0.88L466.68-0.88Q466.68-0.39 466.15-0.16 465.63 0.07 464.5 0.07L464.5 0.07 462.6 0.07Q461.57 0.07 460.95-0.13 460.33-0.34 460.18-0.83L460.18-0.83 458.42-6.13 448.19-6.13 446.44-0.83Q446.17 0.07 444.43 0.07L444.43 0.07 442.73 0.07ZM450.05-11.87L456.57-11.87 454.1-19.58Q453.88-20.17 453.72-20.92 453.57-21.68 453.44-22.36L453.44-22.36 453.27-22.36 453.18-21.83Q452.93-20.39 452.61-19.58L452.61-19.58 450.05-11.87ZM482.91 0.37Q475.58 0.37 472.11-3.44 468.63-7.25 468.63-15.28L468.63-15.28Q468.63-30.74 483.13-30.74L483.13-30.74Q485.11-30.74 487.23-30.35 489.35-29.96 490.78-29.26 492.21-28.56 492.21-27.71L492.21-27.71Q492.21-27.1 491.72-26.11 491.23-25.12 490.56-24.37 489.89-23.61 489.38-23.61L489.38-23.61Q489.26-23.61 488.72-23.85L488.72-23.85Q487.55-24.34 486.27-24.67 484.98-25 483.01-25L483.01-25Q479.17-25 477.33-22.57 475.49-20.14 475.49-15.23L475.49-15.23Q475.49-10.33 477.34-7.84 479.2-5.35 482.91-5.35L482.91-5.35Q484.84-5.35 486.27-5.74 487.69-6.13 489.06-6.74L489.06-6.74Q489.13-6.76 489.5-6.92 489.87-7.08 490.04-7.08L490.04-7.08Q490.67-7.08 491.26-6.34 491.84-5.59 492.21-4.65 492.58-3.71 492.58-3.3L492.58-3.3Q492.58-2.1 490.98-1.27 489.38-0.44 487.12-0.04 484.86 0.37 482.91 0.37L482.91 0.37ZM498.29 0Q497.38 0 496.97-0.42 496.55-0.83 496.55-1.73L496.55-1.73 496.55-28.66Q496.55-29.57 496.97-29.97 497.38-30.37 498.29-30.37L498.29-30.37 514.18-30.37Q514.86-30.37 515.17-29.86 515.47-29.35 515.47-28.2L515.47-28.2 515.47-26.88Q515.47-25.73 515.17-25.22 514.86-24.71 514.18-24.71L514.18-24.71 503.24-24.71 503.24-18.41 513.01-18.41Q513.69-18.41 514-17.9 514.3-17.38 514.3-16.24L514.3-16.24 514.3-14.89Q514.3-13.75 514-13.23 513.69-12.72 513.01-12.72L513.01-12.72 503.24-12.72 503.24-5.69 514.21-5.69Q514.89-5.69 515.19-5.18 515.5-4.66 515.5-3.54L515.5-3.54 515.5-2.17Q515.5-1.03 515.19-0.51 514.89 0 514.21 0L514.21 0 498.29 0ZM521.99 0Q521.09 0 520.67-0.42 520.26-0.83 520.26-1.73L520.26-1.73 520.26-28.66Q520.26-29.57 520.67-29.97 521.09-30.37 521.99-30.37L521.99-30.37 531.71-30.37Q536.18-30.37 539.29-28.63 542.4-26.88 544-23.49 545.6-20.09 545.6-15.21L545.6-15.21Q545.6-10.3 544-6.91 542.4-3.52 539.29-1.76 536.18 0 531.71 0L531.71 0 521.99 0ZM527-5.69L531.71-5.69Q535.17-5.69 536.96-8.12 538.74-10.55 538.74-15.21L538.74-15.21Q538.74-19.85 536.96-22.28 535.17-24.71 531.71-24.71L531.71-24.71 527-24.71 527-5.69ZM562.59 0Q561.68 0 561.27-0.42 560.85-0.83 560.85-1.73L560.85-1.73 560.85-28.66Q560.85-29.57 561.27-29.97 561.68-30.37 562.59-30.37L562.59-30.37 571.18-30.37Q576.45-30.37 578.94-28.33 581.43-26.29 581.43-22.71L581.43-22.71Q581.43-20.56 580.09-18.75 578.75-16.94 576.72-16.11L576.72-16.11 576.77-15.94Q578.48-15.6 579.81-14.55 581.14-13.5 581.89-11.99 582.63-10.47 582.63-8.81L582.63-8.81Q582.63-4.54 579.92-2.27 577.21 0 571.79 0L571.79 0 562.59 0ZM567.54-18.29L570.52-18.29Q572.43-18.29 573.49-19.2 574.55-20.12 574.55-21.53L574.55-21.53Q574.55-24.76 570.59-24.76L570.59-24.76 567.54-24.76 567.54-18.29ZM567.54-5.69L571.79-5.69Q573.67-5.69 574.72-6.6 575.77-7.52 575.77-9.2L575.77-9.2Q575.77-10.86 574.56-11.72 573.35-12.57 571.08-12.57L571.08-12.57 567.54-12.57 567.54-5.69ZM595.01 0.07Q592.39 0.07 592.39-1.29L592.39-1.29 592.39-14.58 583.75-28.54Q583.34-29.25 583.34-29.61L583.34-29.61Q583.34-30.03 584.03-30.26 584.73-30.49 586.12-30.49L586.12-30.49 587.95-30.49Q589-30.49 589.65-30.31 590.29-30.13 590.56-29.66L590.56-29.66 595.86-20.36 601.21-29.66Q601.48-30.13 602.13-30.31 602.79-30.49 603.82-30.49L603.82-30.49 605.36-30.49Q606.75-30.49 607.43-30.26 608.12-30.03 608.12-29.61L608.12-29.61Q608.12-29.13 607.7-28.54L607.7-28.54 599.08-14.45 599.08-1.29Q599.08 0.07 596.5 0.07L596.5 0.07 595.01 0.07ZM620.93 0.07Q618.27 0.07 618.27-0.88L618.27-0.88Q618.27-1.15 618.44-1.66L618.44-1.66 628.01-29.57Q628.35-30.49 630.47-30.49L630.47-30.49 632.72-30.49Q634.84-30.49 635.19-29.57L635.19-29.57 644.76-1.66Q644.88-1.17 644.88-0.88L644.88-0.88Q644.88-0.39 644.35-0.16 643.83 0.07 642.71 0.07L642.71 0.07 640.8 0.07Q639.78 0.07 639.15-0.13 638.53-0.34 638.38-0.83L638.38-0.83 636.63-6.13 626.4-6.13 624.64-0.83Q624.37 0.07 622.64 0.07L622.64 0.07 620.93 0.07ZM628.25-11.87L634.77-11.87 632.31-19.58Q632.09-20.17 631.93-20.92 631.77-21.68 631.65-22.36L631.65-22.36 631.48-22.36 631.38-21.83Q631.13-20.39 630.82-19.58L630.82-19.58 628.25-11.87ZM650.22 0.12Q648.9 0.12 648.26-0.24 647.61-0.61 647.61-1.29L647.61-1.29 647.61-29.08Q647.61-30.52 650.22-30.52L650.22-30.52 651.74-30.52Q653.08-30.52 653.7-30.15 654.32-29.79 654.32-29.08L654.32-29.08 654.32-1.29Q654.32 0.12 651.74 0.12L651.74 0.12 650.22 0.12Z" opacity="1" transform="matrix(1,0,0,1,0,0)" fill="#c8c8c8" class="undefined-text-1" data-fill-palette-color="secondary" id="text-1"></path></svg></g></svg></g></svg></g></svg></g><g transform="matrix(1,0,0,1,147.97306087567807,0)"><svg viewBox="0 0 99.57387824864381 83.57358354857232" height="83.57358354857232" width="99.57387824864381"><g><svg xmlns="http://www.w3.org/2000/svg" xmlns:xlink="http://www.w3.org/1999/xlink" version="1.1" x="8" y="0" viewBox="7.734947788353146 7.7352458618416104 84.53054425048146 84.53024617699299" enable-background="new 0 0 100 100" xml:space="preserve" height="83.57358354857232" width="83.57387824864381" class="icon-icon-0" data-fill-palette-color="accent" id="icon-0"><g fill="#c8c8c8" data-fill-palette-color="accent"><g fill="#c8c8c8" data-fill-palette-color="accent"><g fill="#c8c8c8" data-fill-palette-color="accent"><path d="M28.368 14.767C42.162 16.327 48.04 25.762 49.69 30.695c1.07 3.198 1.472 5.094 1.472 9.275 0 0.817 0.044 2.076-1.054 2.216-0.77 0.099-1.209-0.509-1.273-1.182-0.289-3.026-1.159-6.569-4.008-9.85-2.253-2.594-7.472-7.802-16.652-7.021-2.669 0.228-5.052-1.868-5.129-4.564C22.964 16.703 25.531 14.446 28.368 14.767z" fill="#c8c8c8" data-fill-palette-color="accent"></path><path d="M71.633 85.232c-13.794-1.561-19.671-10.995-21.322-15.929-1.07-3.198-1.472-5.094-1.472-9.275 0-0.817-0.044-2.076 1.054-2.216 0.77-0.099 1.209 0.509 1.273 1.182 0.289 3.026 1.159 6.569 4.008 9.85 2.253 2.594 7.472 7.802 16.652 7.021 2.669-0.228 5.052 1.868 5.129 4.564C77.037 83.296 74.47 85.553 71.633 85.232z" fill="#c8c8c8" data-fill-palette-color="accent"></path></g><g fill="#c8c8c8" data-fill-palette-color="accent"><path d="M14.768 71.633c1.56-13.794 10.995-19.672 15.928-21.322 3.198-1.07 5.094-1.472 9.276-1.472 0.817 0 2.076-0.045 2.216 1.054 0.098 0.77-0.509 1.209-1.182 1.273-3.026 0.288-6.569 1.159-9.849 4.008-2.594 2.254-7.802 7.473-7.021 16.652 0.228 2.669-1.868 5.052-4.564 5.129C16.704 77.036 14.447 74.47 14.768 71.633z" fill="#c8c8c8" data-fill-palette-color="accent"></path><path d="M85.233 28.367c-1.56 13.794-10.995 19.672-15.928 21.322-3.198 1.07-5.094 1.472-9.276 1.472-0.817 0-2.076 0.045-2.216-1.054-0.098-0.77 0.509-1.209 1.182-1.273 3.026-0.288 6.569-1.159 9.849-4.008 2.594-2.254 7.802-7.473 7.021-16.652-0.228-2.669 1.868-5.052 4.564-5.129C83.297 22.964 85.554 25.53 85.233 28.367z" fill="#c8c8c8" data-fill-palette-color="accent"></path></g></g><g fill="#c8c8c8" data-fill-palette-color="accent"><g fill="#c8c8c8" data-fill-palette-color="accent"><path d="M13.65 30.304c12.726-5.546 22.533-0.314 26.43 3.133 2.526 2.234 3.821 3.676 5.912 7.297 0.409 0.708 1.077 1.775 0.195 2.446-0.617 0.47-1.302 0.164-1.693-0.387-1.763-2.477-4.289-5.109-8.396-6.525-3.249-1.12-10.373-3.021-17.931 2.246-2.198 1.531-5.309 0.907-6.724-1.389C9.938 34.682 11.033 31.444 13.65 30.304z" fill="#c8c8c8" data-fill-palette-color="accent"></path><path d="M86.351 69.695c-12.726 5.546-22.533 0.314-26.43-3.133-2.526-2.234-3.821-3.676-5.912-7.297-0.409-0.708-1.077-1.775-0.196-2.446 0.618-0.47 1.302-0.164 1.694 0.387 1.763 2.477 4.289 5.109 8.396 6.525 3.249 1.12 10.373 3.021 17.931-2.245 2.198-1.532 5.309-0.908 6.724 1.388C90.063 65.317 88.968 68.555 86.351 69.695z" fill="#c8c8c8" data-fill-palette-color="accent"></path></g><g fill="#c8c8c8" data-fill-palette-color="accent"><path d="M30.304 86.351c-5.546-12.726-0.314-22.533 3.133-26.43 2.235-2.525 3.676-3.821 7.298-5.912 0.708-0.409 1.775-1.076 2.445-0.195 0.47 0.617 0.164 1.302-0.387 1.693-2.477 1.764-5.109 4.289-6.525 8.396-1.12 3.248-3.021 10.372 2.246 17.931 1.531 2.198 0.908 5.31-1.389 6.725C34.683 90.062 31.445 88.968 30.304 86.351z" fill="#c8c8c8" data-fill-palette-color="accent"></path><path d="M69.696 13.649c5.546 12.726 0.314 22.533-3.133 26.43-2.234 2.526-3.675 3.821-7.297 5.913-0.708 0.408-1.775 1.076-2.446 0.195-0.47-0.618-0.163-1.303 0.388-1.694 2.477-1.763 5.109-4.288 6.525-8.396 1.12-3.249 3.021-10.372-2.246-17.932-1.532-2.198-0.908-5.309 1.388-6.724C65.318 9.938 68.556 11.032 69.696 13.649z" fill="#c8c8c8" data-fill-palette-color="accent"></path></g></g><g fill="#c8c8c8" data-fill-palette-color="accent"><g fill="#c8c8c8" data-fill-palette-color="accent"><path d="M8.671 51.118c8.248-11.166 19.357-11.539 24.456-10.502 3.305 0.672 5.147 1.272 8.769 3.363 0.708 0.408 1.82 0.999 1.392 2.021-0.299 0.716-1.045 0.793-1.66 0.512-2.765-1.263-6.269-2.28-10.533-1.453-3.374 0.654-10.494 2.57-14.406 10.911-1.138 2.425-4.144 3.44-6.518 2.159C7.646 56.766 6.976 53.414 8.671 51.118z" fill="#c8c8c8" data-fill-palette-color="accent"></path><path d="M91.329 48.882C83.081 60.047 71.971 60.42 66.874 59.383c-3.305-0.672-5.147-1.272-8.769-3.363-0.708-0.408-1.82-0.999-1.393-2.021 0.3-0.716 1.046-0.793 1.66-0.512 2.766 1.264 6.269 2.28 10.534 1.453 3.373-0.654 10.493-2.569 14.406-10.91 1.138-2.426 4.144-3.441 6.517-2.16C92.354 43.233 93.025 46.585 91.329 48.882z" fill="#c8c8c8" data-fill-palette-color="accent"></path></g><g fill="#c8c8c8" data-fill-palette-color="accent"><path d="M51.119 91.329C39.953 83.081 39.58 71.972 40.617 66.874c0.673-3.305 1.272-5.147 3.364-8.77 0.409-0.708 1-1.819 2.02-1.392 0.716 0.3 0.793 1.045 0.512 1.66-1.263 2.765-2.28 6.269-1.453 10.533 0.654 3.374 2.57 10.493 10.911 14.406 2.425 1.138 3.44 4.144 2.159 6.518C56.766 92.354 53.415 93.025 51.119 91.329z" fill="#c8c8c8" data-fill-palette-color="accent"></path><path d="M48.882 8.672c11.166 8.247 11.538 19.356 10.501 24.455-0.672 3.305-1.271 5.147-3.362 8.77-0.409 0.707-1 1.819-2.021 1.392-0.716-0.3-0.792-1.046-0.511-1.661 1.263-2.765 2.28-6.268 1.453-10.533-0.655-3.373-2.57-10.492-10.911-14.406-2.426-1.137-3.44-4.144-2.159-6.517C43.234 7.646 46.585 6.976 48.882 8.672z" fill="#c8c8c8" data-fill-palette-color="accent"></path></g></g></g></svg></g></svg></g><g><rect width="147.97306087567807" height="3.13056407194875" y="79.44301947662356" x="247.54693912432188" fill="#c8c8c8" data-fill-palette-color="accent"></rect><rect width="147.97306087567807" height="3.13056407194875" y="79.44301947662356" x="0" fill="#c8c8c8" data-fill-palette-color="accent"></rect><rect width="147.97306087567807" height="3.13056407194875" y="73.18189133272607" x="247.54693912432188" fill="#c8c8c8" data-fill-palette-color="accent"></rect><rect width="147.97306087567807" height="3.13056407194875" y="73.18189133272607" x="0" fill="#c8c8c8" data-fill-palette-color="accent"></rect></g></svg></g><defs></defs></svg><rect width="395.52" height="152.24170332147105" fill="none" stroke="none" visibility="hidden"></rect></g></svg></g></svg>